<svg viewBox="0 0 512 512" version="1.1" xmlns="http://www.w3.org/2000/svg">
  <path d=" M 237.50 92.65 C 240.00 92.25 242.55 92.42 245.07 92.40 C 318.07 92.40 391.06 92.40 464.05 92.40 C 472.81 92.14 480.55 100.34 479.97 109.04 C 479.81 117.34 472.27 124.56 463.97 124.38 C 390.33 124.44 316.68 124.37 243.03 124.41 C 237.58 124.83 231.81 123.03 228.29 118.70 C 223.23 113.11 223.23 103.86 228.13 98.17 C 230.50 95.33 233.85 93.31 237.50 92.65 Z" />
  <path d=" M 98.20 97.20 C 104.01 90.85 114.94 90.85 120.81 97.11 C 141.38 118.22 161.87 139.40 182.39 160.55 C 188.57 166.47 188.55 177.35 182.32 183.22 C 176.46 189.34 165.70 189.34 159.84 183.22 C 148.37 171.49 136.98 159.67 125.54 147.91 C 125.52 231.27 125.54 314.63 125.53 397.99 C 125.46 401.57 125.90 405.28 124.69 408.74 C 122.64 414.93 116.50 419.55 109.94 419.61 C 102.88 419.90 96.05 414.84 94.17 408.05 C 93.30 405.10 93.57 402.00 93.53 398.97 C 93.54 315.29 93.53 231.61 93.53 147.94 C 82.09 159.69 70.70 171.49 59.24 183.21 C 53.22 189.55 42.03 189.25 36.27 182.72 C 30.52 176.80 30.66 166.38 36.60 160.64 C 57.14 139.50 77.63 118.31 98.20 97.20 Z" />
  <path d=" M 235.40 191.58 C 238.19 190.62 241.17 190.73 244.07 190.72 C 300.71 190.76 357.36 190.69 414.00 190.76 C 422.66 190.51 430.41 198.40 430.06 207.03 C 430.13 215.45 422.51 222.99 414.07 222.73 C 356.00 222.72 297.94 222.76 239.87 222.71 C 232.00 222.62 224.91 215.81 224.50 207.94 C 223.83 200.83 228.61 193.73 235.40 191.58 Z" />
  <path d=" M 238.28 289.33 C 280.18 289.03 322.11 289.29 364.03 289.20 C 372.19 288.89 379.65 295.89 380.10 304.00 C 380.73 310.81 376.36 317.59 370.03 320.04 C 366.53 321.49 362.68 321.17 359.00 321.20 C 319.68 321.19 280.37 321.21 241.06 321.19 C 233.71 321.50 226.59 316.16 224.92 309.00 C 222.44 300.15 229.16 290.29 238.28 289.33 Z" />
  <path d=" M 235.30 388.48 C 238.08 387.48 241.08 387.59 244.00 387.59 C 267.66 387.65 291.33 387.51 314.99 387.66 C 323.38 387.82 330.60 395.64 330.23 404.00 C 330.22 412.14 323.05 419.47 314.89 419.58 C 289.90 419.61 264.91 419.61 239.92 419.58 C 232.08 419.50 224.98 412.76 224.51 404.93 C 223.78 397.81 228.51 390.67 235.30 388.48 Z" />
</svg>
