<svg viewBox="0 0 512 512" version="1.1" xmlns="http://www.w3.org/2000/svg">
  <path d=" M 145.05 158.84 C 146.06 151.87 151.99 145.99 158.97 145.03 C 164.39 144.11 170.04 146.23 173.79 150.18 C 201.21 177.55 228.58 204.98 256.00 232.36 C 283.43 204.98 310.80 177.54 338.23 150.16 C 342.00 146.19 347.68 144.09 353.12 145.04 C 360.08 146.04 365.97 151.93 366.96 158.90 C 367.91 164.35 365.78 170.05 361.79 173.83 C 334.42 201.23 307.01 228.59 279.64 256.00 C 307.02 283.42 334.45 310.78 361.82 338.20 C 365.51 341.73 367.63 346.88 367.10 352.00 C 366.57 359.04 361.05 365.33 354.14 366.76 C 348.41 368.14 342.19 366.06 338.19 361.80 C 310.77 334.44 283.41 307.01 256.00 279.64 C 228.41 307.17 200.91 334.80 173.29 362.29 C 167.13 368.73 155.82 368.76 149.71 362.26 C 143.23 356.13 143.28 344.84 149.72 338.70 C 177.21 311.08 204.83 283.59 232.36 256.00 C 205.00 228.60 177.59 201.25 150.23 173.85 C 146.22 170.06 144.07 164.33 145.05 158.84 Z" />
</svg>
