<svg viewBox="0 0 512 512" version="1.1" xmlns="http://www.w3.org/2000/svg">
  <path d=" M 252.38 0.00 L 259.58 0.00 C 301.27 0.73 342.83 11.43 379.36 31.62 C 428.26 58.35 467.94 101.59 490.26 152.66 C 504.14 183.99 511.36 218.16 512.00 252.39 L 512.00 259.67 C 511.34 301.35 500.57 342.88 480.40 379.39 C 461.17 414.48 433.47 444.85 400.46 467.45 C 359.28 495.79 309.59 511.27 259.64 512.00 L 252.42 512.00 C 206.33 511.24 160.43 498.12 121.26 473.75 C 98.06 459.44 77.25 441.32 59.73 420.46 C 33.53 389.30 14.99 351.75 6.23 311.99 C 2.32 294.81 0.42 277.22 0.00 259.61 L 0.00 252.39 C 0.61 215.13 9.19 177.98 25.50 144.44 C 50.05 93.40 92.16 51.05 143.04 26.17 C 176.94 9.44 214.60 0.61 252.38 0.00 M 244.31 34.48 C 209.96 36.27 175.99 46.05 146.13 63.16 C 123.59 75.97 103.39 92.84 86.63 112.61 C 49.73 155.67 30.83 213.39 34.64 269.93 C 36.79 304.96 47.36 339.46 65.34 369.60 C 83.12 399.44 108.03 425.03 137.40 443.58 C 180.20 470.82 232.58 482.38 282.89 476.20 C 321.82 471.57 359.46 456.37 390.56 432.47 C 423.82 407.12 449.82 372.25 464.15 332.93 C 481.40 286.38 482.31 234.03 466.82 186.88 C 448.89 130.92 407.39 83.14 354.69 57.23 C 320.66 40.33 282.24 32.51 244.31 34.48 Z" />
  <path d=" M 145.05 158.84 C 146.06 151.87 151.99 145.99 158.97 145.03 C 164.39 144.11 170.04 146.23 173.79 150.18 C 201.21 177.55 228.58 204.98 256.00 232.36 C 283.43 204.98 310.80 177.54 338.23 150.16 C 342.00 146.19 347.68 144.09 353.12 145.04 C 360.08 146.04 365.97 151.93 366.96 158.90 C 367.91 164.35 365.78 170.05 361.79 173.83 C 334.42 201.23 307.01 228.59 279.64 256.00 C 307.02 283.42 334.45 310.78 361.82 338.20 C 365.51 341.73 367.63 346.88 367.10 352.00 C 366.57 359.04 361.05 365.33 354.14 366.76 C 348.41 368.14 342.19 366.06 338.19 361.80 C 310.77 334.44 283.41 307.01 256.00 279.64 C 228.41 307.17 200.91 334.80 173.29 362.29 C 167.13 368.73 155.82 368.76 149.71 362.26 C 143.23 356.13 143.28 344.84 149.72 338.70 C 177.21 311.08 204.83 283.59 232.36 256.00 C 205.00 228.60 177.59 201.25 150.23 173.85 C 146.22 170.06 144.07 164.33 145.05 158.84 Z" />
</svg>
