<svg viewBox="0 0 512 512" version="1.1" xmlns="http://www.w3.org/2000/svg">
  <path d=" M 237.44 92.66 C 240.24 92.24 243.10 92.42 245.93 92.40 C 318.64 92.40 391.36 92.39 464.07 92.40 C 472.05 92.20 479.31 98.97 479.92 106.88 C 480.72 113.89 476.18 120.93 469.61 123.36 C 465.88 124.75 461.84 124.35 457.94 124.40 C 385.66 124.39 313.37 124.41 241.08 124.39 C 233.26 124.76 225.75 118.68 224.66 110.90 C 223.11 102.66 229.19 94.05 237.44 92.66 Z" />
  <path d=" M 99.80 95.68 C 105.09 91.48 113.14 91.27 118.62 95.23 C 123.01 98.28 125.72 103.56 125.53 108.91 C 125.54 193.97 125.51 279.03 125.54 364.10 C 136.81 352.51 148.05 340.90 159.30 329.30 C 162.51 325.83 167.25 323.86 171.98 324.21 C 179.36 324.41 186.00 330.51 186.87 337.83 C 187.75 343.01 185.68 348.36 181.93 351.96 C 161.54 372.90 141.27 393.94 120.83 414.84 C 114.99 421.13 104.06 421.16 98.24 414.83 C 77.64 393.72 57.14 372.50 36.59 351.34 C 30.48 345.43 30.55 334.60 36.75 328.78 C 42.59 322.67 53.36 322.67 59.22 328.76 C 70.69 340.49 82.08 352.32 93.53 364.08 C 93.53 279.07 93.54 194.07 93.52 109.07 C 93.33 103.93 95.67 98.78 99.80 95.68 Z" />
  <path d=" M 235.39 191.58 C 237.52 190.85 239.80 190.75 242.03 190.72 C 299.02 190.74 356.01 190.73 413.00 190.73 C 418.54 190.46 424.12 193.07 427.22 197.71 C 431.20 203.21 430.97 211.29 426.69 216.56 C 423.70 220.44 418.90 222.84 413.99 222.73 C 356.33 222.74 298.66 222.72 241.00 222.74 C 233.10 223.17 225.55 216.83 224.61 208.97 C 223.41 201.56 228.25 193.83 235.39 191.58 Z" />
  <path d=" M 238.26 289.34 C 279.85 289.00 321.47 289.31 363.07 289.18 C 368.74 288.81 374.45 291.63 377.52 296.44 C 381.83 302.69 380.68 311.93 374.95 316.93 C 371.53 320.27 366.62 321.44 361.96 321.21 C 321.66 321.17 281.35 321.22 241.05 321.19 C 232.61 321.60 224.67 314.43 224.48 305.94 C 223.90 297.93 230.28 290.23 238.26 289.34 Z" />
  <path d=" M 235.32 388.46 C 238.09 387.51 241.06 387.59 243.95 387.59 C 267.60 387.66 291.26 387.51 314.91 387.66 C 323.35 387.77 330.62 395.64 330.22 404.04 C 330.18 412.14 323.07 419.44 314.95 419.57 C 290.26 419.64 265.58 419.58 240.89 419.60 C 234.31 419.89 227.95 415.56 225.55 409.47 C 222.10 401.32 226.89 391.08 235.32 388.46 Z" />
</svg>
