<svg viewBox="0 0 512 512" version="1.1" xmlns="http://www.w3.org/2000/svg">
  <path d=" M 20.52 115.62 C 29.24 113.66 38.61 116.85 44.73 123.25 C 115.18 193.65 185.57 264.13 256.03 334.54 C 324.97 265.64 393.85 196.68 462.78 127.76 C 466.78 123.75 470.72 119.35 476.09 117.18 C 485.28 113.11 496.77 115.15 503.94 122.19 C 508.73 126.66 511.45 132.99 512.00 139.47 L 512.00 141.65 C 511.71 148.74 508.43 155.43 503.31 160.28 C 427.15 236.45 351.02 312.64 274.85 388.78 C 268.84 395.06 259.72 398.23 251.14 396.47 C 245.58 395.45 240.61 392.37 236.70 388.35 C 160.71 312.35 84.72 236.34 8.74 160.33 C 3.60 155.48 0.29 148.78 0.00 141.68 L 0.00 138.91 C 0.96 127.78 9.51 117.81 20.52 115.62 Z" />
</svg>
