<svg viewBox="0 0 512 512" version="1.1" xmlns="http://www.w3.org/2000/svg">
  <path d=" M 339.64 0.00 L 492.51 0.00 C 502.39 0.85 510.64 9.02 512.00 18.77 L 512.00 171.54 C 511.56 178.76 507.49 185.71 501.09 189.20 C 493.82 193.42 484.07 192.67 477.54 187.38 C 472.20 183.34 469.26 176.67 469.36 170.03 C 469.30 137.65 469.37 105.27 469.33 72.89 C 419.05 123.09 368.84 173.35 318.59 223.57 C 315.05 227.06 311.68 231.02 306.95 232.92 C 299.42 236.22 290.05 234.55 284.13 228.84 C 278.06 223.31 275.78 214.10 278.57 206.37 C 279.84 202.47 282.50 199.25 285.39 196.44 C 336.64 145.19 387.90 93.96 439.11 42.67 C 406.71 42.62 374.32 42.70 341.92 42.64 C 334.82 42.76 327.73 39.29 323.79 33.32 C 318.89 26.40 318.85 16.53 323.64 9.54 C 327.15 4.09 333.28 0.77 339.64 0.00 Z" />
  <path d=" M 197.92 283.95 C 203.26 278.43 211.61 276.00 219.03 278.18 C 227.49 280.42 234.04 288.37 234.55 297.13 C 235.11 303.65 232.28 310.12 227.57 314.58 C 176.03 366.17 124.42 417.71 72.89 469.33 C 105.26 469.37 137.63 469.31 170.00 469.36 C 176.92 469.19 183.84 472.48 187.85 478.16 C 192.74 484.69 193.28 494.10 189.16 501.15 C 185.67 507.52 178.74 511.56 171.55 512.00 L 19.44 512.00 C 9.40 511.08 0.91 502.61 0.00 492.56 L 0.00 339.82 C 0.71 332.88 4.64 326.24 10.82 322.85 C 17.92 318.69 27.42 319.26 33.97 324.25 C 39.58 328.26 42.75 335.12 42.64 341.97 C 42.70 374.35 42.63 406.73 42.67 439.11 C 94.46 387.42 146.14 335.63 197.92 283.95 Z" />
</svg>
