<?xml version="1.0" encoding="UTF-8" ?>
<!DOCTYPE svg PUBLIC "-//W3C//DTD SVG 1.1//EN" "http://www.w3.org/Graphics/SVG/1.1/DTD/svg11.dtd">
<svg width="512pt" height="512pt" viewBox="0 0 512 512" version="1.1" xmlns="http://www.w3.org/2000/svg">
<g id="#000000ff">
<path fill="#000000" opacity="1.00" d=" M 57.50 73.36 C 65.56 67.09 75.80 63.80 86.00 64.00 C 199.65 64.01 313.31 63.98 426.97 64.01 C 442.91 63.81 458.49 72.89 466.17 86.85 C 475.56 102.99 473.22 124.80 460.68 138.61 C 411.16 193.16 361.57 247.65 312.00 302.15 C 312.01 331.46 311.98 360.77 312.02 390.08 C 312.39 395.64 310.18 401.34 305.68 404.75 C 279.62 425.65 253.50 446.48 227.44 467.37 C 224.22 470.06 220.23 472.07 215.94 471.97 C 207.48 472.16 199.79 464.52 200.02 456.03 C 199.96 404.74 200.02 353.43 199.99 302.14 C 150.59 247.80 101.18 193.47 51.78 139.13 C 43.39 129.99 39.06 117.29 40.22 104.93 C 41.25 92.61 47.68 80.87 57.50 73.36 M 72.08 107.90 C 71.72 111.65 73.28 115.34 75.83 118.04 C 125.36 172.56 174.83 227.13 224.35 281.65 C 228.18 285.55 232.07 290.17 231.95 295.98 C 232.08 338.22 231.95 380.46 232.01 422.71 C 248.03 409.84 263.99 396.90 280.00 384.02 C 280.03 354.68 279.95 325.33 280.04 295.99 C 279.73 289.03 285.10 284.09 289.42 279.42 C 337.49 226.47 385.53 173.49 433.61 120.57 C 436.67 117.42 439.81 113.70 439.66 109.04 C 439.99 101.77 433.20 95.43 425.98 96.00 C 314.67 96.00 203.35 96.00 92.03 96.00 C 88.70 96.02 85.35 95.79 82.06 96.34 C 76.67 97.46 72.42 102.42 72.08 107.90 Z" />
</g>
</svg>
