<svg viewBox="0 0 512 512" version="1.1" xmlns="http://www.w3.org/2000/svg">
  <path d=" M 56.33 74.30 C 64.56 67.44 75.30 63.77 86.00 64.00 C 199.66 64.01 313.32 63.98 426.98 64.01 C 438.08 63.97 449.14 68.18 457.30 75.71 C 466.58 84.09 472.04 96.51 471.94 109.01 C 471.95 120.06 467.65 131.02 460.19 139.17 C 410.82 193.53 361.39 247.84 312.00 302.18 C 311.98 332.13 312.04 362.09 311.97 392.05 C 312.03 397.23 309.27 402.13 305.15 405.19 C 278.84 426.22 252.58 447.30 226.22 468.28 C 221.83 471.87 215.50 473.07 210.20 470.89 C 204.21 468.62 199.95 462.48 200.03 456.05 C 199.96 404.75 200.03 353.45 200.00 302.14 C 150.61 247.82 101.21 193.51 51.83 139.18 C 44.34 131.03 40.03 120.05 40.04 108.98 C 39.94 95.76 46.09 82.66 56.33 74.30 Z" />
</svg>
