<svg viewBox="0 0 512 512" version="1.1" xmlns="http://www.w3.org/2000/svg">
  <path d=" M 100.26 75.32 C 102.79 74.82 105.39 74.68 107.97 74.66 C 142.98 74.68 177.98 74.65 212.99 74.67 C 222.17 74.56 231.32 78.55 237.34 85.50 C 242.56 91.36 245.38 99.19 245.32 107.02 C 245.34 142.35 245.34 177.68 245.32 213.00 C 245.40 221.48 242.03 229.94 236.00 235.93 C 230.02 242.01 221.52 245.39 213.01 245.32 C 177.68 245.34 142.35 245.34 107.03 245.33 C 97.84 245.44 88.68 241.43 82.65 234.48 C 77.42 228.64 74.61 220.81 74.67 212.99 C 74.68 177.32 74.62 141.65 74.70 105.98 C 74.69 91.42 85.96 77.96 100.26 75.32 Z" />
  <path d=" M 292.27 75.32 C 296.48 74.49 300.79 74.67 305.05 74.66 C 338.36 74.68 371.67 74.66 404.97 74.67 C 412.58 74.62 420.21 77.26 426.01 82.22 C 433.25 88.25 437.44 97.63 437.32 107.03 C 437.35 140.34 437.32 173.65 437.34 206.96 C 437.35 212.24 437.55 217.65 435.90 222.74 C 431.90 236.80 417.43 246.41 402.96 245.35 C 368.33 245.31 333.71 245.35 299.08 245.33 C 289.89 245.45 280.73 241.46 274.69 234.52 C 269.43 228.67 266.60 220.81 266.67 212.97 C 266.68 177.33 266.62 141.69 266.70 106.04 C 266.66 91.46 277.95 77.96 292.27 75.32 Z" />
  <path d=" M 100.30 267.31 C 102.82 266.81 105.40 266.68 107.97 266.66 C 142.97 266.68 177.97 266.65 212.97 266.67 C 220.34 266.62 227.73 269.08 233.44 273.76 C 241.01 279.77 245.44 289.37 245.32 299.01 C 245.34 334.34 245.34 369.68 245.32 405.01 C 245.41 414.18 241.43 423.32 234.49 429.34 C 228.63 434.59 220.77 437.38 212.94 437.33 C 177.31 437.32 141.67 437.38 106.04 437.30 C 89.75 437.39 75.09 423.22 74.74 406.92 C 74.59 370.63 74.67 334.33 74.70 298.04 C 74.66 283.44 85.97 269.95 100.30 267.31 Z" />
  <path d=" M 292.27 267.32 C 296.46 266.49 300.75 266.67 304.99 266.66 C 338.33 266.68 371.68 266.65 405.02 266.67 C 412.61 266.62 420.23 269.27 426.01 274.23 C 433.23 280.24 437.42 289.58 437.32 298.96 C 437.34 334.30 437.34 369.64 437.32 404.99 C 437.39 413.26 434.21 421.51 428.45 427.47 C 422.44 433.83 413.73 437.40 405.00 437.33 C 370.98 437.35 336.96 437.31 302.94 437.34 C 297.60 437.44 292.13 437.21 287.13 435.18 C 275.24 430.75 266.74 418.68 266.70 405.97 C 266.65 369.99 266.64 334.01 266.70 298.03 C 266.66 283.45 277.96 269.96 292.27 267.32 Z" />
</svg>
