<svg viewBox="0 0 512 512" xmlns="http://www.w3.org/2000/svg">
  <path d="M 270.873 96.665 C 273.423 96.165 276.043 96.015 278.643 95.995 C 328.003 96.025 377.353 95.975 426.713 96.015 C 436.153 95.975 445.503 100.355 451.433 107.705 C 456.183 113.445 458.733 120.885 458.673 128.325 C 458.683 163.675 458.693 199.025 458.673 234.365 C 458.773 243.484 454.813 252.554 447.953 258.574 C 442.173 263.774 434.433 266.644 426.663 266.654 C 377.333 266.694 328.013 266.644 278.683 266.674 C 272.963 266.764 267.173 265.594 262.133 262.814 C 251.833 257.384 245.123 245.994 245.353 234.355 C 245.363 198.705 245.313 163.045 245.383 127.395 C 245.333 112.835 256.583 99.345 270.873 96.665 Z" style="transform-origin: 352.015px 181.337px;" transform="matrix(0, 0.999996960163, -1.000002980232, 0, 0.000035452239, -0.000036086846)"/>
  <path d="M 313.891 288.61 C 318.081 287.83 322.371 288.03 326.611 288.01 C 343.971 288.02 361.331 288.02 378.691 288.01 C 383.651 287.97 388.721 287.9 393.491 289.46 C 403.211 292.36 411.231 300.23 414.351 309.87 C 415.871 314.19 416.081 318.82 416.031 323.36 C 415.991 357.67 416.031 391.99 416.001 426.3 C 416.111 435.5 412.111 444.68 405.141 450.71 C 399.311 455.93 391.491 458.72 383.691 458.67 C 362.061 458.66 340.421 458.76 318.781 458.62 C 302.411 458.43 287.991 443.82 288.051 427.44 C 287.991 391.41 287.991 355.37 288.051 319.34 C 288.031 304.67 299.471 291.14 313.891 288.61 Z" style="transform-origin: 352.022px 373.345px;" transform="matrix(0, 0.999996960163, -1.000002980232, 0, 0.000031867407, 0.00000801527)"/>
  <path d="M 121.564 53.982 C 125.114 53.282 128.754 53.302 132.354 53.322 C 152.654 53.382 172.954 53.242 193.244 53.382 C 209.294 53.572 223.504 67.602 223.924 83.642 C 224.104 119.642 223.964 155.652 223.994 191.652 C 224.094 200.952 219.994 210.202 212.894 216.242 C 207.004 221.392 199.164 224.082 191.364 223.992 C 172.354 224.002 153.344 223.982 134.334 224.002 C 128.034 224.102 121.494 224.122 115.624 221.502 C 104.174 216.852 96.104 205.062 96.034 192.682 C 95.974 156.672 95.974 120.662 96.034 84.662 C 96.014 70.102 107.274 56.642 121.564 53.982 Z" style="transform-origin: 160.003px 138.674px;" transform="matrix(0, 0.999996960163, -1.000002980232, 0, 0.000005035089, -0.000025257886)"/>
  <path d="M 77.77 246.228 C 82.53 245.068 87.46 245.338 92.31 245.318 C 139.67 245.328 187.03 245.318 234.4 245.328 C 241.97 245.288 249.56 247.928 255.33 252.868 C 262.58 258.898 266.77 268.268 266.66 277.668 C 266.68 312.988 266.68 348.308 266.66 383.618 C 266.77 392.788 262.79 401.938 255.87 407.968 C 250.03 413.198 242.2 416.018 234.39 415.978 C 186.39 416.008 138.39 415.978 90.39 415.998 C 84.13 416.168 77.65 415.828 71.93 413.038 C 60.68 408.008 53.09 396.028 53.35 383.708 C 53.35 348.008 53.3 312.308 53.38 276.618 C 53.39 262.478 64.01 249.338 77.77 246.228 Z" style="transform-origin: 160.005px 330.669px;" transform="matrix(0, 0.999996960163, -1.000002980232, 0, 0.000016749068, -0.000025007888)"/>
</svg>
