<svg viewBox="0 0 512 512" version="1.1" xmlns="http://www.w3.org/2000/svg">
  <path d=" M 81.28 21.47 C 126.53 21.15 171.78 21.42 217.04 21.33 C 287.71 21.37 358.39 21.25 429.06 21.39 C 447.64 21.95 465.56 31.35 476.93 45.99 C 485.93 57.22 490.80 71.60 490.66 85.97 C 490.67 198.99 490.66 312.01 490.67 425.02 C 490.77 432.78 489.62 440.57 486.98 447.88 C 479.84 468.14 461.96 484.26 440.98 489.01 C 432.15 491.22 423.00 490.58 414.00 490.67 C 304.65 490.67 195.30 490.67 85.95 490.66 C 70.65 490.83 55.40 485.22 43.87 475.17 C 29.93 463.33 21.28 445.37 21.34 427.01 C 21.32 317.66 21.34 208.32 21.33 98.97 C 21.44 89.01 20.64 78.85 23.44 69.15 C 30.08 43.18 54.42 22.84 81.28 21.47 M 79.47 64.78 C 70.54 67.03 63.93 75.75 64.03 84.94 C 63.97 198.63 64.02 312.33 64.00 426.02 C 63.66 434.27 68.46 442.53 76.04 445.95 C 81.62 448.72 88.01 447.88 94.03 448.00 C 205.04 447.98 316.06 448.04 427.08 447.97 C 438.26 448.17 448.18 438.23 447.97 427.05 C 448.04 313.39 447.98 199.72 448.00 86.05 C 448.34 77.79 443.59 69.49 435.99 66.06 C 431.36 63.72 426.06 63.95 421.03 64.00 C 311.35 64.00 201.66 64.00 91.98 64.00 C 87.81 64.05 83.55 63.68 79.47 64.78 Z" />
</svg>
