<svg viewBox="0 0 512 512" version="1.1" xmlns="http://www.w3.org/2000/svg">
<path d=" M 254.25 0.00 L 262.51 0.00 C 300.23 1.13 337.79 10.40 371.31 27.85 C 411.24 48.42 445.32 79.94 469.43 117.79 C 470.33 108.16 471.16 98.53 472.08 88.90 C 472.57 82.38 476.47 76.28 482.19 73.12 C 489.19 69.04 498.65 69.92 504.80 75.19 C 508.87 78.48 511.23 83.45 512.00 88.57 L 512.00 92.42 C 508.53 127.98 505.52 163.59 502.14 199.16 C 501.44 207.07 495.51 214.08 487.89 216.23 C 481.82 218.16 475.02 216.69 469.99 212.87 C 441.47 192.45 412.89 172.09 384.35 151.69 C 376.95 146.68 373.78 136.45 377.15 128.15 C 380.19 119.84 389.23 114.30 398.02 115.44 C 403.36 115.85 407.75 119.15 411.90 122.22 C 419.89 127.91 427.84 133.65 435.86 139.31 C 420.98 115.81 401.48 95.26 378.79 79.18 C 351.11 59.49 318.65 46.59 285.00 41.99 C 246.71 36.71 206.97 42.04 171.55 57.58 C 127.19 76.75 89.90 111.59 67.48 154.38 C 65.82 157.60 64.02 160.88 61.15 163.20 C 55.42 168.16 46.78 169.37 39.92 166.12 C 29.99 161.90 25.24 148.92 30.24 139.32 C 50.94 98.35 82.95 63.17 121.83 38.76 C 161.22 13.83 207.64 0.26 254.25 0.00 Z" />
<path d=" M 23.15 296.08 C 29.43 293.73 36.72 295.08 42.00 299.12 C 70.76 319.63 99.52 340.15 128.23 360.74 C 136.13 366.43 138.54 378.18 133.57 386.54 C 129.44 394.08 120.10 398.21 111.74 396.17 C 106.84 395.16 103.00 391.78 99.02 389.00 C 91.38 383.58 83.81 378.06 76.14 372.70 C 101.58 412.99 140.85 444.38 185.88 460.04 C 214.94 470.31 246.27 473.98 276.93 470.94 C 313.67 467.37 349.36 453.89 379.34 432.36 C 407.10 412.53 429.97 385.95 445.58 355.62 C 448.57 349.31 454.90 344.69 461.90 344.14 C 469.73 343.30 477.76 347.65 481.39 354.63 C 484.36 360.13 484.54 367.04 481.77 372.66 C 458.43 418.87 420.64 457.65 375.00 482.10 C 341.10 500.48 302.91 510.37 264.44 512.00 L 247.68 512.00 C 206.18 510.40 165.03 498.89 129.20 477.80 C 94.19 457.39 64.39 428.37 42.58 394.25 C 41.59 404.16 40.84 414.09 39.80 424.00 C 39.01 430.90 34.28 437.11 27.90 439.81 C 20.92 442.91 12.25 441.47 6.63 436.31 C 2.90 433.05 0.74 428.34 0.00 423.49 L 0.00 419.58 C 3.47 384.01 6.48 348.39 9.85 312.81 C 10.52 305.25 15.96 298.46 23.15 296.08 Z" />
</svg>
