<svg viewBox="0 0 512 512" version="1.1" xmlns="http://www.w3.org/2000/svg">
  <path d=" M 199.38 0.00 L 205.62 0.00 C 249.58 0.59 293.07 16.16 327.55 43.37 C 358.49 67.58 382.15 100.96 394.67 138.22 C 414.24 194.71 406.32 259.85 374.12 310.17 C 370.08 317.20 364.91 323.45 360.16 330.00 C 407.80 377.64 455.42 425.29 503.08 472.90 C 508.08 477.34 511.94 483.41 512.00 490.30 L 512.00 492.36 C 511.14 502.52 502.57 511.06 492.44 512.00 L 489.50 512.00 C 483.97 511.60 478.79 509.04 474.95 505.09 C 426.61 456.80 378.31 408.46 329.97 360.16 C 311.09 375.12 289.81 387.15 266.91 394.72 C 225.11 408.76 178.51 409.00 136.88 394.18 C 87.28 377.32 44.98 340.23 21.67 293.34 C 7.85 266.27 0.50 236.02 0.00 205.64 L 0.00 199.38 C 0.74 145.27 24.47 92.01 64.09 55.20 C 100.24 20.85 149.49 0.74 199.38 0.00 M 184.56 43.77 C 166.17 46.04 148.06 51.10 131.53 59.55 C 91.21 79.41 60.02 117.11 48.47 160.59 C 36.62 203.07 43.54 250.42 67.31 287.60 C 89.24 322.81 125.42 348.89 165.88 358.24 C 191.83 364.40 219.40 363.95 245.11 356.78 C 289.91 344.74 328.50 311.88 347.76 269.71 C 367.47 227.84 367.45 177.24 347.65 135.41 C 328.36 93.30 289.76 60.51 244.99 48.53 C 225.40 43.02 204.76 41.62 184.56 43.77 Z" />
</svg>
