<svg viewBox="0 0 512 512" version="1.1" xmlns="http://www.w3.org/2000/svg">
  <path d=" M 237.49 0.00 L 274.41 0.00 C 286.61 0.71 298.47 6.18 306.71 15.24 C 313.44 22.54 317.82 32.01 318.86 41.90 C 319.41 47.24 319.13 52.62 319.20 57.98 C 330.23 61.57 340.98 66.00 351.29 71.31 C 356.42 66.42 361.06 60.88 367.16 57.13 C 377.35 50.60 390.12 48.32 401.96 50.85 C 411.05 52.67 419.48 57.37 425.98 63.95 C 433.52 71.46 441.05 78.98 448.54 86.53 C 455.11 93.19 459.65 101.82 461.34 111.02 C 463.89 124.26 460.38 138.52 451.90 149.01 C 448.49 153.22 444.42 156.82 440.69 160.73 C 445.97 171.05 450.41 181.78 454.01 192.80 C 462.92 192.80 472.11 192.29 480.60 195.53 C 498.55 201.66 511.50 219.47 512.00 238.41 L 512.00 274.43 C 511.09 292.82 498.62 309.98 481.26 316.23 C 472.59 319.68 463.14 319.23 454.01 319.20 C 450.39 330.21 445.98 340.95 440.68 351.26 C 446.46 357.21 452.94 362.76 456.71 370.31 C 465.86 387.10 463.19 409.34 450.34 423.50 C 443.91 430.35 437.11 436.83 430.52 443.52 C 426.06 448.05 421.55 452.68 415.96 455.81 C 402.67 463.60 385.51 464.25 371.69 457.40 C 363.54 453.67 357.56 446.85 351.29 440.69 C 340.98 446.00 330.22 450.41 319.20 454.03 C 319.26 463.39 319.66 473.09 315.96 481.91 C 309.57 498.93 292.63 511.07 274.51 512.00 L 237.57 512.00 C 226.10 511.23 214.88 506.45 206.76 498.26 C 199.92 491.50 195.22 482.60 193.56 473.13 C 192.45 466.80 192.89 460.36 192.80 453.97 C 181.79 450.39 171.04 445.99 160.77 440.66 C 154.64 446.65 148.84 453.31 140.98 457.10 C 123.83 466.03 101.37 462.81 87.45 449.39 C 78.92 440.96 70.37 432.54 62.03 423.93 C 48.86 409.78 46.03 387.26 55.29 370.30 C 59.08 362.77 65.55 357.22 71.32 351.27 C 66.02 340.96 61.60 330.22 57.99 319.20 C 48.88 319.22 39.45 319.70 30.82 316.23 C 13.44 310.05 0.93 292.90 0.00 274.52 L 0.00 237.55 C 0.88 219.41 13.04 202.45 30.06 196.04 C 38.89 192.30 48.62 192.76 57.99 192.80 C 61.60 181.79 65.98 171.04 71.33 160.75 C 66.29 155.44 60.56 150.65 56.77 144.29 C 45.97 127.26 48.07 103.40 61.65 88.50 C 69.25 80.48 77.25 72.84 85.01 64.96 C 90.22 59.56 96.55 55.15 103.66 52.66 C 117.10 47.70 132.79 49.36 144.85 57.11 C 150.96 60.87 155.60 66.43 160.75 71.33 C 171.04 66.02 181.79 61.61 192.80 58.03 C 192.84 53.34 192.67 48.65 192.96 43.96 C 193.60 33.13 198.26 22.61 205.75 14.76 C 213.93 5.99 225.56 0.79 237.49 0.00 M 235.44 30.60 C 228.55 32.41 223.16 38.89 222.86 46.04 C 222.65 54.04 222.95 62.04 222.73 70.03 C 222.53 76.35 217.84 82.13 211.73 83.73 C 195.63 87.95 180.11 94.37 165.74 102.79 C 160.25 106.10 152.68 105.41 148.00 100.97 C 142.24 95.45 136.76 89.62 130.98 84.11 C 124.82 78.36 114.34 78.43 108.23 84.22 C 100.97 91.31 93.89 98.58 86.67 105.71 C 84.47 107.85 82.28 110.14 81.15 113.05 C 78.51 119.15 79.87 126.72 84.55 131.46 C 89.97 137.02 95.59 142.39 100.96 147.99 C 105.41 152.67 106.11 160.24 102.79 165.75 C 94.88 179.29 88.60 193.82 84.52 208.98 C 83.42 216.51 76.92 223.09 69.05 222.78 C 61.36 222.89 53.67 222.68 45.99 222.87 C 37.64 223.20 30.32 230.57 30.06 238.92 C 29.91 248.60 30.06 258.28 29.99 267.97 C 30.00 271.32 29.80 274.82 31.07 278.00 C 33.32 284.21 39.43 288.85 46.06 289.13 C 54.05 289.35 62.06 289.05 70.06 289.26 C 76.37 289.46 82.12 294.15 83.72 300.23 C 87.73 315.39 93.54 330.10 101.37 343.71 C 105.93 349.78 106.24 359.00 100.55 364.47 C 95.11 370.06 89.46 375.45 84.06 381.07 C 77.79 387.80 78.71 399.32 85.64 405.26 C 93.21 412.75 100.65 420.37 108.28 427.81 C 114.39 433.54 124.80 433.60 130.95 427.90 C 136.75 422.39 142.23 416.55 148.00 411.01 C 152.73 406.66 160.25 405.81 165.75 409.21 C 179.91 417.47 195.15 423.88 211.01 428.05 C 217.43 429.46 222.54 435.34 222.74 441.96 C 222.94 449.96 222.65 457.98 222.87 465.98 C 223.20 474.31 230.54 481.63 238.87 481.93 C 249.91 482.08 260.95 481.98 271.99 481.99 C 280.35 482.19 288.13 475.40 289.03 467.09 C 289.51 458.48 288.93 449.83 289.31 441.21 C 289.82 434.86 294.85 429.41 301.01 428.04 C 316.87 423.90 332.12 417.50 346.26 409.20 C 351.74 405.86 359.30 406.59 363.98 411.01 C 367.93 414.74 371.68 418.69 375.55 422.50 C 378.80 425.62 381.72 429.41 386.09 431.00 C 392.45 433.60 400.17 431.76 404.84 426.77 C 411.87 419.79 418.82 412.75 425.86 405.78 C 433.11 399.85 434.42 387.98 427.91 381.04 C 422.54 375.40 416.89 370.04 411.46 364.46 C 408.23 361.22 406.59 356.49 407.24 351.95 C 407.63 348.41 409.71 345.41 411.38 342.37 C 418.41 329.80 423.89 316.35 427.64 302.44 C 428.76 295.94 433.91 290.16 440.63 289.38 C 449.07 288.91 457.54 289.42 465.99 289.13 C 474.34 288.78 481.64 281.44 481.93 273.09 C 482.08 262.06 481.98 251.02 481.99 239.99 C 482.09 233.34 477.91 226.93 471.82 224.29 C 466.85 221.99 461.24 223.02 455.97 222.80 C 450.65 222.65 445.30 223.13 440.01 222.52 C 434.18 221.53 429.37 216.77 428.06 211.05 C 423.91 195.16 417.48 179.90 409.20 165.73 C 405.87 160.24 406.58 152.66 411.04 148.00 C 416.42 142.39 422.07 137.04 427.46 131.45 C 432.10 126.70 433.48 119.16 430.85 113.08 C 429.65 109.95 427.23 107.55 424.89 105.26 C 417.81 98.29 410.90 91.15 403.77 84.24 C 397.67 78.44 387.19 78.36 381.02 84.11 C 375.23 89.64 369.75 95.49 363.95 101.01 C 359.26 105.42 351.71 106.11 346.23 102.78 C 332.10 94.47 316.84 88.08 300.98 83.95 C 294.58 82.53 289.46 76.66 289.27 70.06 C 289.05 62.05 289.36 54.02 289.13 46.01 C 288.80 37.64 281.43 30.32 273.05 30.06 C 263.36 29.91 253.67 30.06 243.98 29.99 C 241.13 30.00 238.22 29.85 235.44 30.60 Z" />
  <path d=" M 244.20 145.24 C 267.65 142.71 291.89 147.83 312.21 159.86 C 336.59 174.08 355.21 197.88 362.99 225.03 C 370.83 251.80 368.07 281.49 355.34 306.32 C 342.69 331.36 320.27 351.27 293.86 360.75 C 273.21 368.25 250.31 369.44 229.01 364.03 C 200.95 357.17 176.01 338.73 161.00 314.08 C 146.86 291.26 141.59 263.21 146.27 236.80 C 151.13 208.28 167.77 182.07 191.36 165.36 C 206.84 154.24 225.23 147.22 244.20 145.24 M 242.56 175.72 C 217.61 179.73 195.16 196.22 183.67 218.69 C 174.09 237.04 172.01 259.11 177.91 278.94 C 182.57 294.94 192.37 309.35 205.42 319.70 C 219.10 330.66 236.42 336.97 253.95 337.36 C 271.45 337.84 289.05 332.45 303.26 322.21 C 318.77 311.17 330.22 294.54 334.87 276.06 C 339.26 258.93 337.87 240.37 330.88 224.13 C 323.93 207.77 311.45 193.84 295.97 185.12 C 279.95 175.97 260.74 172.66 242.56 175.72 Z" />
</svg>
