<svg viewBox="0 0 512 512" version="1.1" xmlns="http://www.w3.org/2000/svg">
  <path d=" M 490.36 0.00 L 491.87 0.00 C 502.31 0.55 511.26 9.43 512.00 19.84 L 512.00 22.22 C 511.81 29.46 507.29 35.44 502.10 40.06 C 451.45 90.70 400.81 141.34 350.17 191.99 C 382.81 192.04 415.44 191.93 448.07 192.05 C 457.54 191.97 466.47 198.91 468.64 208.14 C 471.20 217.57 466.20 228.25 457.40 232.43 C 452.37 235.03 446.55 234.67 441.07 234.66 C 393.37 234.63 345.68 234.71 297.98 234.62 C 287.12 234.56 277.45 224.89 277.38 214.03 C 277.30 164.33 277.35 114.63 277.35 64.93 C 277.16 57.80 280.51 50.62 286.46 46.58 C 293.46 41.53 303.55 41.46 310.63 46.40 C 316.69 50.43 320.20 57.71 319.99 64.95 C 320.02 97.24 319.98 129.53 320.01 161.83 C 371.67 110.20 423.29 58.53 474.96 6.90 C 478.97 2.71 484.54 0.13 490.36 0.00 Z" />
  <path d=" M 54.59 279.58 C 58.39 277.62 62.75 277.27 66.96 277.33 C 115.99 277.38 165.03 277.29 214.06 277.38 C 224.91 277.46 234.56 287.13 234.63 297.98 C 234.70 347.65 234.65 397.33 234.65 447.00 C 235.01 455.70 229.73 464.30 221.62 467.59 C 214.45 470.72 205.62 469.39 199.68 464.31 C 194.59 460.13 191.83 453.52 192.01 446.98 C 191.98 414.71 192.02 382.44 191.99 350.17 C 140.33 401.80 88.71 453.47 37.04 505.10 C 33.20 509.11 27.92 511.64 22.35 512.00 L 20.14 512.00 C 9.70 511.45 0.74 502.57 0.00 492.16 L 0.00 490.40 C -0.12 482.34 5.29 475.97 10.94 470.90 C 61.23 420.60 111.54 370.32 161.82 320.01 C 129.22 319.96 96.61 320.06 64.00 319.96 C 53.10 320.16 43.16 310.87 42.77 299.95 C 42.15 291.60 47.05 283.20 54.59 279.58 Z" />
</svg>
