<svg viewBox="0 0 512 512" version="1.1" xmlns="http://www.w3.org/2000/svg">
  <path d=" M 231.16 27.13 C 236.10 15.64 249.56 8.74 261.78 11.65 C 270.40 13.42 277.78 19.73 281.14 27.83 C 300.64 73.29 319.99 118.81 339.48 164.27 C 388.05 168.63 436.61 173.04 485.16 177.49 C 490.36 177.85 495.58 179.20 499.90 182.21 C 507.05 186.93 511.56 195.16 512.00 203.69 L 512.00 205.42 C 511.75 213.05 508.29 220.48 502.52 225.48 C 465.35 258.09 428.16 290.66 391.01 323.27 C 401.61 369.95 412.19 416.63 422.80 463.31 C 424.75 470.21 425.50 477.78 422.61 484.53 C 418.33 495.77 405.96 503.04 394.06 501.35 C 387.23 500.70 381.58 496.56 375.86 493.19 C 335.91 469.32 295.98 445.42 256.02 421.59 C 213.81 446.83 171.59 472.08 129.36 497.30 C 122.61 501.51 114.03 502.88 106.42 500.37 C 96.54 497.35 88.94 488.22 87.69 477.98 C 86.90 473.04 88.05 468.12 89.21 463.34 C 99.82 416.65 110.43 369.95 121.01 323.26 C 83.86 290.63 46.65 258.07 9.51 225.44 C 4.15 220.87 0.91 214.22 0.00 207.29 L 0.00 203.37 C 0.54 193.68 6.56 184.50 15.36 180.35 C 21.10 177.41 27.69 177.51 33.95 176.87 C 80.14 172.67 126.34 168.54 172.52 164.26 C 192.10 118.57 211.58 72.83 231.16 27.13 M 255.82 50.80 C 237.56 93.54 219.31 136.28 201.03 179.01 C 198.16 185.96 192.41 191.69 185.32 194.27 C 179.73 196.31 173.69 196.14 167.85 196.85 C 124.82 200.76 81.79 204.71 38.75 208.56 C 73.84 239.35 108.96 270.10 144.03 300.91 C 151.68 307.44 155.17 318.29 152.71 328.06 C 142.43 373.56 132.05 419.03 121.79 464.53 C 159.75 441.89 197.67 419.18 235.61 396.50 C 240.24 393.77 244.77 390.55 250.13 389.45 C 257.23 387.80 264.83 389.36 270.96 393.21 C 310.71 416.99 350.48 440.75 390.22 464.54 C 380.31 420.83 370.38 377.12 360.46 333.40 C 359.47 329.02 358.23 324.60 358.54 320.07 C 358.92 312.77 362.42 305.73 367.97 300.97 C 403.03 270.16 438.16 239.42 473.23 208.62 C 426.83 204.30 380.41 200.20 334.01 195.94 C 323.95 195.18 314.68 188.44 310.94 179.07 C 292.96 136.98 274.98 94.89 257.04 52.78 C 256.72 52.06 256.32 51.40 255.82 50.80 Z" />
</svg>
