<svg viewBox="0 0 512 512" version="1.1" xmlns="http://www.w3.org/2000/svg">
  <path d=" M 231.18 27.16 C 235.60 16.86 246.89 10.08 258.06 11.12 C 268.14 11.73 277.37 18.55 281.18 27.85 C 300.64 73.32 320.00 118.82 339.49 164.28 C 388.82 168.73 438.14 173.14 487.45 177.74 C 500.55 178.76 511.45 190.39 512.00 203.45 L 512.00 205.63 C 511.66 213.18 508.25 220.55 502.51 225.50 C 465.35 258.09 428.19 290.69 391.01 323.27 C 401.94 371.53 412.92 419.77 423.86 468.03 C 425.70 475.92 423.93 484.60 418.92 491.00 C 410.99 501.83 394.68 504.81 383.34 497.71 C 340.89 472.36 298.48 446.93 256.02 421.59 C 213.79 446.84 171.58 472.10 129.33 497.32 C 121.98 501.95 112.44 503.00 104.38 499.64 C 95.13 495.98 88.38 486.86 87.54 476.95 C 86.91 471.66 88.51 466.51 89.64 461.41 C 100.08 415.35 110.57 369.30 120.99 323.24 C 83.67 290.51 46.34 257.79 9.02 225.06 C 4.04 220.68 1.22 214.41 0.00 207.99 L 0.00 202.76 C 0.88 193.56 6.41 184.87 14.72 180.68 C 20.62 177.43 27.52 177.51 34.04 176.88 C 80.20 172.69 126.36 168.53 172.52 164.29 C 192.16 118.62 211.54 72.83 231.18 27.16 Z" />
</svg>
