<svg viewBox="0 0 512 512" version="1.1" xmlns="http://www.w3.org/2000/svg">
  <path d=" M 248.13 116.73 C 257.55 113.68 268.39 116.58 275.13 123.80 C 349.42 197.87 423.68 271.96 497.96 346.04 C 501.12 349.26 504.55 352.27 507.21 355.93 C 510.03 359.82 511.47 364.53 512.00 369.26 L 512.00 371.73 C 511.52 379.91 507.21 387.82 500.26 392.25 C 490.29 399.07 475.78 397.34 467.53 388.56 C 396.98 318.30 326.54 247.91 255.99 177.65 C 187.18 246.25 118.40 314.87 49.60 383.48 C 46.07 386.97 42.69 390.78 38.28 393.22 C 30.16 397.79 19.53 397.45 11.77 392.26 C 4.82 387.83 0.44 379.93 0.00 371.73 L 0.00 369.35 C 0.46 361.54 4.76 354.64 10.50 349.55 C 84.78 275.49 159.03 201.40 233.30 127.31 C 237.53 122.94 242.10 118.43 248.13 116.73 Z" />
</svg>
