<svg viewBox="0 0 512 512" version="1.1" xmlns="http://www.w3.org/2000/svg">
  <path d=" M 148.18 121.17 C 181.28 103.65 218.42 92.96 256.01 92.90 C 290.39 92.89 324.34 102.01 355.24 116.77 C 364.39 121.60 373.88 125.86 382.58 131.50 C 401.55 142.66 419.29 155.80 436.13 169.94 C 462.10 191.91 485.75 216.58 506.72 243.36 C 509.41 246.65 511.39 250.55 512.00 254.79 L 512.00 257.01 C 511.46 261.34 509.44 265.31 506.70 268.66 C 486.01 295.06 462.74 319.46 437.16 341.16 C 409.35 364.90 378.49 385.26 344.93 399.90 C 319.94 410.55 293.21 417.49 266.01 418.85 C 224.87 420.92 183.77 409.77 147.60 390.53 C 117.77 375.45 90.66 355.40 65.72 333.25 C 43.54 313.40 23.15 291.55 4.85 268.08 C 2.35 264.93 0.59 261.20 0.00 257.21 L 0.00 255.00 C 0.52 250.93 2.29 247.12 4.85 243.94 C 27.50 214.83 53.41 188.26 81.93 164.88 C 102.55 148.26 124.45 133.02 148.18 121.17 M 212.01 132.54 C 182.75 139.90 155.60 153.97 130.67 170.74 C 95.93 194.44 65.37 223.85 38.38 256.00 C 69.32 292.69 104.86 326.01 146.02 350.99 C 166.93 363.54 189.38 373.84 213.10 379.75 C 241.01 387.23 270.92 387.23 298.84 379.78 C 328.75 372.37 356.53 358.07 381.91 340.84 C 416.44 317.25 446.76 287.95 473.61 256.00 C 442.82 219.48 407.48 186.31 366.56 161.37 C 341.99 146.46 315.13 134.93 286.82 129.49 C 262.09 124.91 236.27 125.81 212.01 132.54 Z" />
  <path d=" M 242.49 155.72 C 264.48 152.70 287.44 157.17 306.61 168.40 C 323.62 178.19 337.63 193.09 346.42 210.63 C 356.17 229.73 359.38 252.01 355.74 273.11 C 350.58 304.56 329.40 332.80 300.76 346.72 C 280.00 357.16 255.54 359.85 232.94 354.54 C 213.76 350.11 196.02 339.83 182.51 325.52 C 168.87 311.13 159.53 292.66 156.26 273.09 C 153.22 255.37 154.96 236.82 161.42 220.04 C 174.07 185.97 206.37 160.18 242.49 155.72 M 247.07 189.13 C 227.54 191.64 209.43 203.25 199.00 219.95 C 190.90 232.59 187.32 248.00 188.90 262.91 C 190.39 278.24 197.46 292.92 208.38 303.75 C 219.66 315.07 235.11 322.18 251.07 323.28 C 265.09 324.37 279.39 320.84 291.34 313.44 C 303.04 306.26 312.44 295.42 317.89 282.82 C 325.00 266.63 325.29 247.60 318.72 231.19 C 313.34 217.53 303.36 205.75 290.77 198.21 C 277.79 190.33 262.11 187.07 247.07 189.13 Z" />
</svg>
